<svg xmlns="http://www.w3.org/2000/svg" xmlns:xlink="http://www.w3.org/1999/xlink" width="174.163" height="132.839" viewBox="0 0 174.163 132.839"><defs><style>.a{fill:#a7a7a7;}.b{clip-path:url(#a);}</style><clipPath id="a"><rect class="a" width="174.163" height="132.839"/></clipPath></defs><g class="b" transform="translate(0 0)"><path class="a" d="M156,0H18.158A18.178,18.178,0,0,0,0,18.158V98.49a18.178,18.178,0,0,0,18.158,18.158h39.53v6.719H28.17a4.736,4.736,0,1,0,0,9.472H145.992a4.736,4.736,0,0,0,0-9.472h-31.35v-6.719H156a18.18,18.18,0,0,0,18.16-18.158V18.158A18.18,18.18,0,0,0,156,0m8.688,98.49A8.7,8.7,0,0,1,156,107.176H18.158A8.7,8.7,0,0,1,9.472,98.49V18.158a8.7,8.7,0,0,1,8.686-8.686H156a8.7,8.7,0,0,1,8.688,8.686Z" transform="translate(0 0)"/><path class="a" d="M141.54,10H14.735A4.737,4.737,0,0,0,10,14.735v69.29a4.735,4.735,0,0,0,4.736,4.736H141.54a4.736,4.736,0,0,0,4.736-4.736V14.735A4.738,4.738,0,0,0,141.54,10M136.8,79.289H19.471V19.471H136.8Z" transform="translate(8.943 8.943)"/><path class="a" d="M24.327,37.355H69.641a4.732,4.732,0,0,0,3.26-1.3L85.008,24.562a4.736,4.736,0,1,0-6.519-6.871L67.752,27.883H24.327a4.736,4.736,0,0,0,0,9.472" transform="translate(17.522 14.659)"/><path class="a" d="M24.327,37.877h95.646a4.736,4.736,0,1,0,0-9.472H24.327a4.736,4.736,0,1,0,0,9.472" transform="translate(17.522 25.405)"/><path class="a" d="M24.327,43.79H85.088l8.68,9.561a4.735,4.735,0,1,0,7.011-6.367L90.69,35.87a4.735,4.735,0,0,0-3.5-1.552H24.327a4.736,4.736,0,0,0,0,9.472" transform="translate(17.522 30.694)"/></g></svg>